<svg width="1024" height="1024" viewBox="0 0 1024 1024" fill="none" xmlns="http://www.w3.org/2000/svg">
<rect width="1024" height="1024" rx="512" fill="white"/>
<path d="M545.628 900.55C545.628 891.454 551.754 883.633 560.264 880.42C574.315 875.114 584.247 868.779 590.061 861.415C598.233 852.222 602.319 840.73 602.319 826.941C602.319 816.216 600.021 807.278 595.424 800.128C590.828 793.488 581.89 787.36 568.611 781.742C555.843 776.634 537.201 771.782 512.686 767.186C483.575 761.568 457.528 753.652 434.545 743.437C412.073 732.712 394.197 718.156 380.918 699.77C367.639 681.384 361 657.38 361 627.758C361 600.179 367.639 574.387 380.918 550.383C394.197 526.379 412.328 505.184 435.311 486.798C457.852 468.765 483.34 454.172 511.776 443.017C512.785 442.621 513.452 441.65 513.452 440.567V440.567C513.452 439.371 512.642 438.327 511.484 438.025C492.271 433.022 473.775 427.062 455.995 420.148C437.609 412.998 422.543 404.06 410.796 393.335C399.56 382.099 393.942 368.82 393.942 353.498C393.942 331.027 402.88 310.853 420.755 292.978C439.141 275.102 460.592 259.78 485.107 247.012C466.21 244.459 445.525 239.607 423.053 232.457C407.509 227.034 393.5 220.46 381.026 212.735C372.652 207.549 371.272 196.267 377.319 188.493V188.493C383.183 180.954 393.935 179.435 402.251 184.132C414.247 190.906 428.587 197.311 445.27 203.345C469.785 212.028 493.789 217.39 517.283 219.433C528.519 211.261 543.585 203.601 562.482 196.45C581.89 189.3 599.765 185.725 616.109 185.725C637.048 185.725 647.518 193.386 647.518 208.708C647.518 223.008 639.091 234.499 622.237 243.182C605.894 251.353 586.997 255.439 565.547 255.439C553.8 255.439 543.585 255.439 534.903 255.439C526.731 254.928 520.602 254.418 516.517 253.907C498.641 266.675 485.107 279.954 475.914 293.744C467.231 307.022 462.89 322.6 462.89 340.475C462.89 359.883 471.573 376.481 488.937 390.271C506.813 403.55 527.242 412.998 550.225 418.616C558.907 413.509 569.377 408.912 581.634 404.826C594.403 400.23 605.639 397.932 615.343 397.932C625.557 397.932 633.729 399.974 639.857 404.06C645.986 408.146 649.051 413.764 649.051 420.914C649.051 430.618 643.943 439.3 633.729 446.961C623.514 454.111 609.725 457.686 592.36 457.686C584.699 457.686 576.527 457.176 567.845 456.154C559.162 455.133 552.778 454.367 548.693 453.856C531.838 459.474 514.474 470.455 496.598 486.798C479.234 502.63 464.678 521.527 452.931 543.488C441.184 564.939 435.311 587.411 435.311 610.904C435.311 632.865 440.163 650.23 449.867 662.998C459.57 675.766 473.871 685.981 492.768 693.641C511.665 701.302 535.158 708.452 563.248 715.092C593.381 721.731 617.385 731.18 635.261 743.437C653.647 755.695 662.84 774.336 662.84 799.362C662.84 817.237 658.499 834.857 649.817 852.222C641.645 869.586 628.877 884.653 611.512 897.421C599.884 906.582 585.824 913.799 569.334 919.071C557.237 922.938 545.628 913.25 545.628 900.55V900.55Z" fill="#F76808"/>
</svg>
