<svg width="1024" height="1024" viewBox="0 0 1024 1024" xmlns="http://www.w3.org/2000/svg">
<circle cx="512" cy="200" r="23.926949896879997" fill="rgb(220,106,46)"/>
<circle cx="462" cy="290" r="30.21927919271221" fill="rgb(213,95,37)"/>
<circle cx="562" cy="290" r="30.21927919271221" fill="rgb(213,95,37)"/>
<circle cx="412" cy="380" r="35.58035997305965" fill="rgb(208,87,30)"/>
<circle cx="512" cy="380" r="38.75116346673889" fill="rgb(205,82,26)"/>
<circle cx="612" cy="380" r="35.58035997305965" fill="rgb(208,87,30)"/>
<circle cx="362" cy="470" r="36.48905782450414" fill="rgb(207,85,29)"/>
<circle cx="462" cy="470" r="45.59399674329761" fill="rgb(200,74,19)"/>
<circle cx="562" cy="470" r="45.59399674329761" fill="rgb(200,74,19)"/>
<circle cx="662" cy="470" r="36.48905782450414" fill="rgb(207,85,29)"/>
<circle cx="312" cy="560" r="32.04068776106227" fill="rgb(211,92,34)"/>
<circle cx="412" cy="560" r="40.834548557445544" fill="rgb(203,80,24)"/>
<circle cx="512" cy="560" r="47.487916420433464" fill="rgb(198,71,17)"/>
<circle cx="612" cy="560" r="40.834548557445544" fill="rgb(203,80,24)"/>
<circle cx="712" cy="560" r="32.04068776106227" fill="rgb(211,92,34)"/>
<circle cx="262" cy="650" r="25.771531552234585" fill="rgb(218,102,43)"/>
<circle cx="362" cy="650" r="32.19878535010317" fill="rgb(211,92,34)"/>
<circle cx="462" cy="650" r="37.33377057561243" fill="rgb(206,84,28)"/>
<circle cx="562" cy="650" r="37.33377057561243" fill="rgb(206,84,28)"/>
<circle cx="662" cy="650" r="32.19878535010317" fill="rgb(211,92,34)"/>
<circle cx="762" cy="650" r="25.771531552234585" fill="rgb(218,102,43)"/>
<circle cx="212" cy="740" r="19.890820572007613" fill="rgb(226,114,53)"/>
<circle cx="312" cy="740" r="24.522008293003857" fill="rgb(220,105,45)"/>
<circle cx="412" cy="740" r="28.51354524169964" fill="rgb(215,98,39)"/>
<circle cx="512" cy="740" r="30.18353927635581" fill="rgb(213,95,37)"/>
<circle cx="612" cy="740" r="28.51354524169964" fill="rgb(215,98,39)"/>
<circle cx="712" cy="740" r="24.522008293003857" fill="rgb(220,105,45)"/>
<circle cx="812" cy="740" r="19.890820572007613" fill="rgb(226,114,53)"/>
</svg>
